<svg id="Layer_1" data-name="Layer 1" xmlns="http://www.w3.org/2000/svg" viewBox="0 0 1444 1444"><defs><style>.cls-1{font-size:172.83px;font-family:Roboto-Medium, Roboto;font-weight:500;letter-spacing:0.02em;}.cls-1,.cls-2{fill:#3faf6d;}</style></defs><text class="cls-1" transform="translate(482.57 1096.68)">About</text><path class="cls-2" d="M1084.41,607.11c-1.87,13.95-3.06,28-5.71,41.83Q1045.66,821,892,905.61c-57.46,31.6-119.79,46-185.15,41.95-136-8.39-237.93-72.92-304.44-191.71-32-57.2-46.11-119.72-42.08-185.06,8.4-136.26,73.17-238.14,192.25-304.81,44.16-24.72,92.22-37.74,142.79-41.19a37.53,37.53,0,0,0,5.47-1.16h42.46a37.4,37.4,0,0,0,5.46,1.16c44.22,2.93,86.63,13.44,126.35,32.91,111.53,54.67,179.68,143.08,203.56,265.15,2.69,13.78,3.84,27.86,5.71,41.81Zm-362-350.63C541,256.06,393.06,403.75,392.64,585.61c-.42,181.32,147.3,329.26,329.18,329.68,181.35.42,329.31-147.27,329.73-329.13C1052,404.84,904.26,256.91,722.37,256.48Z"/><path class="cls-2" d="M800.5,728.79c-1.7,6.6-3.06,12.48-4.82,18.23a5.84,5.84,0,0,1-3.37,3c-14.89,5.14-29.54,11.47-44.84,14.83-21.76,4.79-43.59,4.72-63.21-8.78-14.28-9.82-20.42-23.42-19.51-40.54,1.66-30.77,14-58.94,21.29-88.33,3.62-14.57,7.33-29.29,8.86-44.16,1.7-16.52-7-24.62-24-23.49-10.15.68-20.16,3.39-30.65,5.26,1.44-5.78,2.82-11.9,4.58-17.91a5.9,5.9,0,0,1,3.26-3.3c24.6-8.71,48.74-19,75.84-17.37,23.08,1.38,44.28,15.14,47.9,35.69,2.26,12.83,1.45,27-1.5,39.78-6.69,28.85-15.78,57.14-23.38,85.8a124.5,124.5,0,0,0-3.56,25.09C742.73,724.76,748,731,760,733.26c12.56,2.37,24.84.77,36.8-3.64A36,36,0,0,1,800.5,728.79Z"/><path class="cls-2" d="M757.6,404.78c26.87.05,47,18.9,46.8,43.12-.19,18.34-13.52,34.06-33.49,39.49-21.48,5.84-45.75-4.2-54.95-22.72-13-26.25,5.63-56.6,36.65-59.6C754.49,404.89,756.37,404.85,757.6,404.78Z"/></svg>