<svg id="Layer_1" data-name="Layer 1" xmlns="http://www.w3.org/2000/svg" viewBox="0 0 1444 1444"><defs><style>.cls-1{font-size:172.83px;font-family:Roboto-Medium, Roboto;font-weight:500;letter-spacing:0.02em;}.cls-1,.cls-3{fill:#3faf6d;}.cls-2{letter-spacing:0.02em;}</style></defs><text class="cls-1" transform="translate(457.28 1119.13)">P<tspan class="cls-2" x="114.37" y="0">r</tspan><tspan x="177.68" y="0">ofile</tspan></text><path class="cls-3" d="M721.65,897.14H585.93c-40.87,0-71.43-33.49-68-74.21,5.34-64,10.45-128,15.79-192.06.94-11.32,1.45-22.83,3.94-33.84A82.28,82.28,0,0,1,617.77,533q103.86-.33,207.73,0c43.73.16,79,34,82.53,78q8.44,106,17.35,212c3.39,40.71-27.16,74.21-68,74.22Zm0-30.48H856.86c23.43,0,39.95-17.35,38.09-40.7-5.68-71.21-11.62-142.39-17.43-213.59-2.24-27.56-24.63-48.89-52.2-49q-103.64-.24-207.27,0c-27.59.06-50.07,21.36-52.28,48.87q-2.57,31.72-5.2,63.45c-4.1,50-8.32,100.09-12.23,150.14-1.83,23.41,14.61,40.78,38,40.79Z"/><path class="cls-3" d="M721.82,226.47c77.32,0,140.18,63,139.93,140.32A140.11,140.11,0,1,1,721.82,226.47ZM831.43,366.74c.17-59.79-49-109.61-108.31-109.79-61.66-.19-110.9,48.19-111.27,109.32-.36,60.27,48.95,109.88,109.35,110A109.82,109.82,0,0,0,831.43,366.74Z"/></svg>