<svg id="Layer_1" data-name="Layer 1" xmlns="http://www.w3.org/2000/svg" viewBox="0 0 1444 1444"><defs><style>.cls-1{font-size:172.83px;font-family:Roboto-Medium, Roboto;font-weight:500;letter-spacing:0.03em;}.cls-1,.cls-2{fill:#3faf6d;}</style></defs><text class="cls-1" transform="translate(485.58 1121.34)">News</text><path class="cls-2" d="M565,247.72H991.81a18.1,18.1,0,0,0,2.78,1.15c26.73,6.3,43.34,26.47,43.35,52.95q0,260.49,0,521c0,31.12-23.76,54-56.12,54q-258.9.06-517.8-.1c-31,0-55.22-13.37-70.76-39.16-5.41-9-7.78-19.64-11.53-29.53V370.59a5.55,5.55,0,0,0,1-1.46c7.37-27.85,27.32-42.77,57.27-42.77q35.83,0,71.68,0c2.24,0,4.47-.18,7-.29,0-9.32-.06-17.89,0-26.47.14-16.84,7-30.91,21.22-40.55C547.32,254,556.57,251.41,565,247.72Zm-38.74,603c1.25.06,2.1.13,3,.13q225.56,0,451.09,0c19.27,0,30.49-11,30.5-29.68q.06-258.61,0-517.22c0-19.46-11.11-30.14-31.29-30.15q-201.19,0-402.4,0c-20.4,0-31.33,10.54-31.33,29.92q0,241.41.19,482.82c0,23.08-3.81,44.32-19.54,62.53C526.22,849.25,526.34,849.76,526.26,850.68ZM518,353.06a10.61,10.61,0,0,0-2.25-.62c-26.27,0-52.54-.15-78.81,0A28.06,28.06,0,0,0,416.4,361c-6.3,6.47-7.58,14.36-7.57,22.76q0,146.19,0,292.37c0,39.72-.16,79.45,0,119.17.2,37.41,33.39,62.75,69.47,53.36,24.74-6.44,40-26.78,40-54.16q.1-217.76,0-435.49C518.35,357,518.14,355,518,353.06Z"/><path class="cls-2" d="M983.05,523.07q0,38.07,0,76.14c0,10.44-5,15.61-15.88,15.64q-79.74.17-159.49,0c-10.7,0-15.79-5.44-15.8-15.88q0-76.14,0-152.28c0-10.36,5.15-15.6,16-15.62q79.43-.17,158.85,0c11.39,0,16.26,5,16.27,15.88Q983.07,485,983.05,523.07Zm-27.53,64.85V458H819.34V587.92Z"/><path class="cls-2" d="M668.46,378.88c-21.77,0-43.54.17-65.31-.16a23.74,23.74,0,0,1-11.74-3.6c-4.38-2.81-6.26-8.11-4-12.54,2-3.78,6.11-6.79,9.87-9.34,1.8-1.22,5-.74,7.5-.74q64-.06,128.07,0a34.65,34.65,0,0,1,8.22.8,12.73,12.73,0,0,1,.24,24.69,29.47,29.47,0,0,1-7.57.87q-32.65.09-65.32,0Z"/><path class="cls-2" d="M888,352.47c22,0,44-.1,66,0,11.88.07,19,9.53,14.27,18.77-3.13,6.14-8.84,7.66-15.5,7.64q-51.54-.1-103.09,0c-9.39,0-18.78.07-28.17,0-10-.11-15.79-5.05-15.81-13.16s5.83-13.16,15.76-13.2C843.64,352.41,865.83,352.47,888,352.47Z"/><path class="cls-2" d="M669.08,431q31.35,0,62.71,0a43,43,0,0,1,7,.42c7.34,1.24,12.09,6.46,12,13S746,456,738.58,457.24a40.84,40.84,0,0,1-6.36.37q-63.36,0-126.71,0a36.83,36.83,0,0,1-8.84-.92,12.68,12.68,0,0,1,.2-24.77,38.55,38.55,0,0,1,8.86-.86C626.84,431,648,431,669.08,431Z"/><path class="cls-2" d="M668.44,536.26q-31.35,0-62.71,0a39.13,39.13,0,0,1-8.25-.7c-6.58-1.44-10.77-6.66-10.67-12.79.11-6,4.14-10.89,10.47-12.33a37.09,37.09,0,0,1,8.23-.75q63.36-.06,126.71,0h1.28c10.79.14,17.25,5.07,17.33,13.21s-6.42,13.36-17.12,13.39C712,536.32,690.2,536.26,668.44,536.26Z"/><path class="cls-2" d="M668.3,614.79c-22,0-44,.08-65.95,0-11.57-.06-18.58-9.1-14.38-18.26,2.5-5.45,7.11-8.07,13.18-8.08q67.56-.06,135.1,0c8.71,0,14.61,5.73,14.59,13.17,0,7.64-6.13,13.1-15.31,13.15-22.41.13-44.82.05-67.23.05Z"/><path class="cls-2" d="M668.86,667q32,0,64,0a34.23,34.23,0,0,1,8.22.8,12.73,12.73,0,0,1,.24,24.68,28.74,28.74,0,0,1-7.58.87q-64.66.08-129.33,0c-.64,0-1.28,0-1.92,0-9.55-.18-15.83-5.54-15.71-13.39.12-7.62,6.27-12.88,15.46-13,9-.11,17.93,0,26.89,0Z"/><path class="cls-2" d="M887.3,693.43q-32.64,0-65.29,0c-6.38,0-11.87-1.47-15-7.41-3.81-7.31.05-15.9,8.24-18.2a23.42,23.42,0,0,1,6.31-.78q65.92-.07,131.86,0c11.38,0,18.17,7.43,15.54,16.6-1.88,6.55-7,9.77-15.77,9.79q-33,.06-65.93,0Z"/><path class="cls-2" d="M668.74,745.66q32.34,0,64.67,0a31.6,31.6,0,0,1,7.59.76,12.75,12.75,0,0,1-.16,24.86,28.86,28.86,0,0,1-7,.74q-65,.06-130,0a34.83,34.83,0,0,1-5.11-.19c-7-1-12-6.55-12-13.08s5.1-12,12.15-12.94a42.35,42.35,0,0,1,5.75-.18Z"/><path class="cls-2" d="M887.53,772.07q-32,0-64,0a34.39,34.39,0,0,1-7.6-.64c-6.4-1.46-10.16-6.22-10.21-12.43s3.66-11,10-12.59a29.47,29.47,0,0,1,7-.69q65-.06,129.94,0c1.07,0,2.14,0,3.2,0,8.2.63,14,6.21,13.83,13.37C969.49,766,964,771.5,956,772c-5.74.34-11.52.1-17.28.1Z"/></svg>