<svg id="Layer_1" data-name="Layer 1" xmlns="http://www.w3.org/2000/svg" viewBox="0 0 1444 1444"><defs><style>.cls-1{font-size:172.83px;font-family:Roboto-Medium, Roboto;font-weight:500;letter-spacing:0.03em;}.cls-1,.cls-3{fill:#3faf6d;}.cls-2{letter-spacing:0.02em;}</style></defs><text class="cls-1" transform="translate(255.05 1056.85)">Mar<tspan class="cls-2" x="317.95" y="0">k</tspan><tspan x="411.05" y="0">etplace</tspan></text><path class="cls-3" d="M883.77,565.6c10.51,0,21.16.14,31.8,0q99.57-1.5,199.13-3.09c14.34-.21,18.09,5.07,13.19,17.66q-21.8,56-43.53,112.05c-4.76,12.23-5.71,12.79-19.42,12.95q-105.11,1.25-210.2,2.56c-3.32,0-6.65.39-10.92.65.94,6.68,1.42,12.89,2.94,18.87.37,1.47,4.11,3,6.36,3.11,10.44.33,20.91.15,31.36.15h217c2.55,0,5.11-.15,7.63.1,5.78.56,9.46,3.5,9.91,9,.48,5.87-3,9.7-9,10.48-5.25.66-10.67.13-16.86.13,1.26,11.93-.1,23.17-10.94,29.8-6.19,3.79-14.62,6.57-21.88,6.29-18.62-.72-29.28-15.44-26.91-35.26H956.83c1.82,10.47.4,20.83-8.94,27.47-5.9,4.19-14,7.57-21.25,7.93-18.75.94-29.24-12.11-29.94-35.42H883.59v50.09c7.47,0,15.25,0,23,0,11.45.07,14.88,3,15,13.35.13,10.47.19,20.95,0,31.41-.2,9.1-3.67,12.19-13.44,12.52-4.51.15-9,0-13.56,0H405.38c-14.59,0-17.2-2.44-17.21-16,0-9.17,0-18.33,0-27.49.05-10.41,3.46-13.68,14.47-13.76,9.87-.07,19.74,0,31,0v-8.74q0-155.86.13-311.74c0-5.51-1.61-8.89-6.54-12.27-16.73-11.46-26.28-27.25-28.44-46.33a28.53,28.53,0,0,1,3.36-16.38c27.63-48.84,55.84-97.39,83.55-146.19,4.12-7.24,9.41-9.84,18.13-9.83q156.44.33,312.86,0c8.09,0,13.08,2.5,16.86,9.12C861.91,308.44,890.58,358,919,407.59c5.41,9.45,1.84,19-1.31,28.13-5.24,15.2-15.36,27.12-29.83,36-2.35,1.44-4.8,4.7-4.83,7.15-.37,28-.29,56-.28,84A10.32,10.32,0,0,0,883.77,565.6ZM596.58,800.67v-8.83q0-86.77,0-173.54c0-12.69,2.73-15.25,16.17-15.25L706,603c14.31,0,16.56,2.06,16.57,15.54q0,86.38,0,172.75v9.27H860.74V750.44H845.89c-15.63,0-17.67-1.74-19.93-16.21-10.69-68.54-21.58-137.07-31.9-205.66-1.06-7-3.79-8.41-10.6-8.27-16.67.36-33.35.13-50,0-6.77,0-10.87-3.59-10.85-9.67s4.16-9.61,10.89-9.64q33.91-.15,67.83-.05c6.21,0,10.08,2.84,11,8.73,1,6.46,2.15,12.91,3.18,19.38,2,12.58,4,25.17,5.86,37.19H861V484.16c-14.94-2.36-29.88-2.47-42.69-7.38-13-5-23.86-14.68-35.72-22.34-27.93,36.08-89.08,40-122.6-3.35-34.09,44.37-97.13,39-125.77-.77-19,25.9-46,35-78.8,31.29V800.67Zm104.54.08V623.3H618.51V800.75Zm67.16-396c-.75-3-1.09-4.72-1.62-6.41q-16-51.9-32.14-103.78c-2.49-8-2.65-19.2-8.45-23.09-6.22-4.17-17.82-1.61-27.07-1.7-14-.14-28,0-42.66,0,1.66,21.09,3.22,41.09,4.8,61.09q2.67,33.6,5.36,67.2c.28,3.41.2,6.81,5.76,6.78C703.84,404.72,735.42,404.79,768.28,404.79Zm124.21,0c-1.47-3.11-2.35-5.39-3.57-7.5-22-38.24-44.45-76.24-65.7-114.82-5.57-10.11-11.83-14-23.87-12.93-11.74,1.06-23.68.23-35.53.23H749c13.81,44.38,27.16,87.47,40.83,130.47.61,1.92,4.11,4.34,6.29,4.35C827.71,404.9,859.3,404.81,892.49,404.81Zm-247.09-.37a35.1,35.1,0,0,0,.22-3.92c-3.35-41.74-6.79-83.47-10-125.22-.35-4.58-2.42-5.61-6.88-5.57-16.39.16-32.79.27-49.17-.05-5.73-.11-7.62,1.75-8.64,6.88-6.43,32.38-13.31,64.68-20,97-2.08,10.09-3.92,20.23-6,30.86Zm-218.09-.74a14.35,14.35,0,0,0,3.15,1c29.07.06,58.13.18,87.19-.14,2.11,0,5.59-3.08,6.05-5.18,5.89-26.57,11.37-53.22,16.88-79.87,3.37-16.28,6.61-32.58,10.07-49.7-13.36,0-25.75.3-38.1-.13-6.14-.22-9.52,1.53-12.45,6.73-16.66,29.62-33.8,59-50.72,88.5C442,377.7,434.77,390.57,427.31,403.7ZM410.17,838.09H899.6V821.66H410.17ZM547.59,425c1.73,19.9,25.15,37.57,49.29,37.73,24.32.16,47.83-17.44,50-37.73Zm224.87.29H672.81c3.39,20.9,26.59,37.87,50.21,37.47C747.33,462.34,769.63,445.55,772.46,425.28Zm125.71-.44H798.26c3.14,20.88,26.2,38.72,49.63,37.57C872.75,461.19,894.13,448.46,898.17,424.84Zm-379.85.05H421.48c3.75,21.59,27.69,39,50.74,37.53C496,460.86,517.92,443.08,518.32,424.89Zm460,198.75c19,0,37.31.05,55.56-.09,1.35,0,3.51-1,3.9-2,4.82-12.41,9.39-24.91,13.93-37.16H978.34Zm-144.8,20c2.45,15.42,4.73,29.73,6.92,43.42H899.6c-4.43-14.1-8.37-27.1-12.75-40-.52-1.52-3.49-3.28-5.36-3.31C866,643.53,850.56,643.64,833.54,643.64Zm68.26-20.56h54V585.49H890Zm76.67,63.17c11.1,0,21.46.14,31.81-.14,1.73-.05,4.39-1.62,5-3.05,5-12.66,9.53-25.45,14.47-38.87H978.47Zm-70.12-42.31c4.29,13.68,8.14,26.43,12.42,39,.57,1.68,3.26,3.8,5.06,3.87,10,.37,20,.18,30,.18V643.94ZM879.5,623.33c-3.55-11.77-6.77-22.81-10.3-33.77-.45-1.4-2.42-3.35-3.72-3.38-13.34-.25-26.68-.15-40.87-.15,2.17,13.93,4,25.5,5.82,37.3Zm224.76-40.62c-9.14,0-17.25-.18-25.35.14-1.75.07-4.41,1.58-5,3-4.77,12.22-9.15,24.57-13.93,37.63h28.46C1093.55,610.35,1098.75,596.92,1104.26,582.71Zm-23.74,61c-8.89,0-16.47-.14-24,.1-1.64.05-4.26,1.1-4.7,2.26-5,12.86-9.62,25.84-14.56,39.33,8.56,0,15.87.26,23.13-.17a7.44,7.44,0,0,0,5.27-3.68C1070.65,669.44,1075.27,657.19,1080.52,643.71ZM929.82,750.29c-8.66.5-12.5,3.79-11.24,8.66.78,3,5.21,6.75,8.62,7.39,5.66,1.07,9.3-3.25,8.4-8.18C935,754.91,931.27,752.15,929.82,750.29Zm135.8-1-4.17-.12c-2.34,3.17-6,6.1-6.72,9.56-1,4.76,2.76,7.8,8.06,7.94,5.71.16,9.64-2.82,8.78-8.06C1071,755.27,1067.7,752.35,1065.62,749.26Z"/></svg>