<?xml version="1.0" encoding="utf-8"?>
<!-- Generator: Adobe Illustrator 24.3.0, SVG Export Plug-In . SVG Version: 6.00 Build 0)  -->
<svg version="1.1" id="Layer_1" xmlns="http://www.w3.org/2000/svg" xmlns:xlink="http://www.w3.org/1999/xlink" x="0px" y="0px"
	 viewBox="0 0 1444 1444" style="enable-background:new 0 0 1444 1444;" xml:space="preserve">
<style type="text/css">
	.st0{fill:#3FAF6D;}
	.st1{font-family:'Roboto-Medium';}
	.st2{font-size:172.83px;}
	.st3{letter-spacing:3;}
</style>
<text transform="matrix(1 0 0 1 433.58 1098.45)" class="st0 st1 st2 st3">Charity</text>
<path class="st0" d="M568.5,716.5c-1.8-24.2,2.9-44,23.9-55.6c7.1-3.9,15.7-7.1,23.7-7.2c36.3-0.8,73.5,4.6,108.7-1.9
	c34.9-6.4,67.8-24,101.5-37.1c41.3-16.2,84.4-16,127.7-15.1c4.5,0.1,8.9,0.1,13.4,0c0.9,0,1.9-0.6,4.7-1.5c0-7.1-0.2-14.8,0-22.6
	c0.7-21.1,11.7-32.2,32.6-32.3c33.8-0.2,67.6-0.2,101.5,0c21.1,0.1,32.4,11.2,32.4,32c0.1,96.5,0.1,192.9,0,289.4
	c0,20.2-10.9,30.8-31.5,30.8c-33.3,0.1-66.6,0.1-100,0c-25.2,0-34.9-9.8-35-35.2c0-5.9,0-11.7,0-21.3c-19.5,2.4-38.2,2-55.1,7.3
	c-70.7,22.5-140.8,46.8-211.2,70.1c-18.7,6.2-37,5.4-54.7-4.4c-98-54.5-196.1-109.1-294.2-163.6c-21.2-12-29.9-38-20.2-60.4
	c11.6-26.5,33.2-37.9,58.6-29.5c55.5,18.3,110.7,37.4,166,56.1C563,715.1,564.9,715.5,568.5,716.5z M971.5,621.9
	c-34.6,2.2-68.7-0.2-100.4,7.5c-42.1,10.2-82.1,28.5-123.2,42.9c-7.3,2.6-15.2,4.7-22.8,4.9c-33.8,0.5-67.7,0.1-101.5,0.3
	c-18.9,0.1-30.3,10.7-30.6,27.4c-0.3,17.2,10,26.2,30.1,26.2c45.3,0,90.6-0.1,135.8,0.1c27.1,0.1,51.6,23.8,50.7,49.9
	c-0.2,5.3-5.2,13.4-9.7,15c-8.5,2.8-12.6-3.5-14.2-12.4c-3.8-20.3-13.3-27.5-34.1-27.5c-42.8,0-85.6,0.4-128.4-0.3
	c-11.4-0.1-22.6-2-33.4-5.5c-66.7-22.1-133.2-44.9-199.8-67.3c-14.3-4.8-23.3-0.6-29.7,13.4c-5.4,11.7-1.9,24,9.9,30.5
	c98,54.7,196,109.4,294.6,163.1c8.8,4.8,22.6,4.9,32.6,2c91.1-26.6,178-68,274.1-80.9V621.9z M999.2,568.6v301.7h114.2v-19.9
	c0-86.9,0-173.8,0-260.8c0-3.5-0.2-7,0.1-10.4c0.6-7.5-2.4-10.7-10.3-10.7C1069,568.8,1034.8,568.7,999.2,568.6L999.2,568.6z"/>
<path class="st0" d="M552.9,297.8c16.4-25.9,36.2-44.5,66-51.2c67.4-15.2,130.5,37.8,126.7,106.6c-2.1,37.4-15.8,70.3-34.9,101.5
	c-35.6,58.2-83.7,105.8-131.3,153.9c-8.7,8.8-17.3,17.8-26.9,27.7C488.9,569.5,419.4,509.1,378.9,425c-16.6-34.5-27-70.7-14.1-109.3
	c13.3-40,41.8-64,82.7-70.3c39.7-6.2,73.6,6.2,97.2,40.8C546.9,289.5,549.2,292.7,552.9,297.8z M552.8,350.9
	c-9.2-16.4-16.8-32-26.3-46.5c-20.4-31.2-54.1-42.6-88.3-31.2c-33.8,11.2-56.5,43.2-52.5,79.1c2.4,21.3,7.4,43.3,16.4,62.6
	c34.7,73.7,94.8,127.3,151.7,187c35.7-39.6,71.2-77.1,104.4-116.5c29.3-34.7,52.8-73.1,61.2-119.1c7.2-39.3-12.2-77.2-47.5-91.4
	c-37.4-15-73.3-2.7-95.8,33.6C567.9,321.9,560.9,336,552.8,350.9z"/>
</svg>
