<svg id="Layer_1" data-name="Layer 1" xmlns="http://www.w3.org/2000/svg" viewBox="0 0 1444 1444"><defs><style>.cls-1{font-size:172.83px;font-family:Roboto-Medium, Roboto;font-weight:500;letter-spacing:0.02em;}.cls-1,.cls-2{fill:#3faf6d;}</style></defs><text class="cls-1" transform="translate(313.03 1077.9)">Comudity</text><path class="cls-2" d="M735.66,826.46c-7.67,11-13.18,21.22-20.93,29.34-9.44,9.9-22.61,11.72-36.06,11.7-74.51-.14-149-.3-223.52.07-23.77.12-42.37-8-51.63-30.56s-2.5-41.93,16.24-58.64c-12.22-10.48-20.1-23.38-20.11-39.77s7-29.75,19.74-39.93c-29.67-29.67-22.86-60.08-1.3-80-5.26-8.35-11.91-16-15.3-24.81-12.1-31.65,11.44-64.78,46-65.07,44.63-.37,89.26-.1,133.9-.1h11.12c6.28-38.65,12.4-76.35,18.66-114.88-2.36-.6-5.63-1.38-8.86-2.26-14.47-4-24.52-15.48-26.08-29.8-1.61-14.85,5.38-27.76,18-35.46,4.4-2.67,7.76-7.18,11.31-11.1,15.65-17.27,34.45-31.49,57.33-33.77,13.41-1.34,23.21-2.14,30.15-14.48,2-3.62,6.93-7.79,10.67-7.94,17.56-.74,31.14-13,48-15.52,2.84-.42,5.76-2.17,8.08-4,13.53-10.76,27-11.82,42.11-3.82,3.2,1.7,7.56,1.31,11.41,1.66,9.27.85,18.77,3.15,27.75,1.88,8.62-1.22,16.45-7.66,25.09-9.14,10.56-1.8,20.33,2.92,26.94,11.46,9.29,12,20.09,18.71,36.06,17.88,11.95-.62,23,5.56,27.25,16.64,4.66,12,15,16.63,23.26,24.23,6,5.58,11.14,12.16,16.66,18.29,1.78,2,3.21,4.57,5.4,5.85,17.9,10.46,24.75,22.31,22.15,39-2.48,15.83-13.57,25.61-33.74,29.76a9,9,0,0,0-1.64,1c3.57,19.54,7.49,39.37,10.78,59.31,14.54,88.08,14.12,175.64-10.34,262.17-1.84,6.49.42,9.41,5.15,12.9,19.83,14.66,36.49,32.46,45.24,55.72a93.15,93.15,0,0,1,5.65,35.75c-.63,15.27-12.49,26.65-27.8,26.38a108.4,108.4,0,0,1-38.52-7.88c-21.52-8.88-37.76-25.18-52-43.46-1.89-2.42-7.24-4.66-9.75-3.71C858.14,834.14,796.84,840.28,735.66,826.46ZM612.57,528.6c23.31,0,44.67-.17,66,.1,6.6.08,13.19,1.89,19.79,1.9,4.27,0,9.61-.52,12.64-3,30.85-25.46,65.87-36.66,105.77-32.7,72.73,7.22,128,74.47,121.5,148.06C931.7,717.81,865,775.25,791.41,767.71c-20.18-2.07-39.84-9.31-60.73-14.42-1.3,2.48-3.47,7.65-6.56,12.2S717,774,714,777.52c5.13,7.61,11.06,14.32,14.47,22.12,2.85,6.52,6.81,8.66,13.08,10,60.81,12.94,119.55,5.67,176.52-18,9.16-3.81,14.48-2.7,19.95,6,13.56,21.62,31.78,38.46,55.81,48,10.16,4,21.73,8.38,30.84-.4,9.6-9.25,5-21.18.93-31.64-9.2-23.36-25.43-41.34-46.36-54.53-9.71-6.11-10.7-12-8-22.52,6.27-24.09,12.13-48.45,15.7-73.06,11.77-81.11,3.43-161.22-14-240.77-1.68-7.7-4.51-10.1-12.37-10-44.29.38-88.58.18-132.88.18-61.87,0-123.74.13-185.61-.16-7.67,0-11.25,1.82-12.51,9.89-2.65,17-6.73,33.76-9.5,50.75C617.24,491.21,615.19,509.24,612.57,528.6ZM714.42,696.92c5.57,8.93,10.3,17,15.56,24.76,3,4.42,6.07,9.52,10.42,12.16,51.27,31.14,118.31,18.43,155.29-29a119.26,119.26,0,0,0-11-159.29c-43-41.91-111.26-45.21-158-7.71-2.42,1.94-5.29,3.32-8,5,11.06,13.27,16.75,26.37,13.14,40.23-3.3,12.64-10.48,24.26-16.33,37.19C739.38,644.47,739.36,668.82,714.42,696.92ZM565.87,849.68c38.29,0,76.59.07,114.89,0,20,0,34.06-12.92,34.15-30.9s-13.82-31.5-33.7-31.56q-115.41-.34-230.84.19c-6.91,0-14.62,2.79-20.53,6.54-11,7-14.94,21.28-11.11,33.66,4.09,13.2,15.53,21.95,30.13,22C487.86,849.8,526.87,849.66,565.87,849.68Zm-.19-80.29c38.29,0,76.59.08,114.88,0,20.06-.06,34.07-12.83,34.28-30.82s-13.75-31.6-33.52-31.65q-115.41-.25-230.82.1a39.72,39.72,0,0,0-17.12,4.11c-12.62,6.35-18.6,21.39-15,35s15.39,23.1,30.33,23.18C487.69,769.53,526.68,769.38,565.68,769.39Zm.61-160.57c37.59,0,75.18.06,112.77,0,21.63,0,35.92-12.73,35.76-31.47-.15-18.33-14.3-31-35.18-31.06q-113.82-.15-227.64-.06c-20.75,0-34.64,12.9-34.52,31.57s14,31,35,31Q509.38,608.9,566.29,608.82Zm-.92,80.27c38.64,0,77.29.09,115.93,0,15.82-.06,27.27-8,31.79-21.27,7.34-21.64-8.32-41.19-33.6-41.24q-113.82-.22-227.64,0c-20.75,0-34.55,13-34.37,31.69.18,18.25,13.9,30.82,34.07,30.88C489.49,689.17,527.43,689.1,565.37,689.09Zm411.49-348c.25-.6.5-1.2.74-1.81-7.35-4.91-14.2-11-22.2-14.35-6.41-2.67-10-5.29-10.28-12.42-.37-8.34-5.84-16.36-13.19-14.94-14.1,2.74-25.14-.35-35.43-9.33-.46-.4-1.54-.06-2-.45-3.29-2.7-7.7-4.88-9.52-8.39-7.73-14.9-21.52-16.81-31.31-3.35-5,6.92-9.89,8.35-16.44,2.49-7.28-6.51-15.13-7.14-23-1.27-6.37,4.78-11,3.7-16.21-2.16-8.9-10-19.63-9.75-27.54.78-4,5.29-8.26,5.79-14.29,6.19-5.63.38-12.35,3.08-16.19,7.07-4.91,5.09-8.94,5.67-15.59,4.93-5.49-.61-14.44,1.16-16.59,4.9-5,8.66-12.05,13.6-19.67,19.11-5.7,4.14-9.79,4.65-16.16,2.13-4.39-1.74-12.61-2.49-14.61,0-8.28,10.21-19.82,13.8-30.93,18.6-.34.15-.26,1.25-.43,2.29ZM800.49,394.93q91.23,0,182.44,0c3.85,0,7.82.11,11.53-.74,8.64-2,13.34-8,13.38-16.63,0-9.15-5.12-15.11-14.13-17.18-2.69-.61-5.6-.36-8.4-.36q-184,0-368,0a41.09,41.09,0,0,0-7.37.22c-9.09,1.7-14.51,7.32-14.85,16.52s4.51,15.37,13.57,17.51c3.37.79,7,.67,10.49.67Q709.81,395,800.49,394.93Z"/><path class="cls-2" d="M819.34,657.5c-.36-9.85-6.94-15.92-18.8-17.35-20.64-2.49-34.24-15.74-34.84-34.28-.47-14.68,6.14-25.4,18.48-33.23,3.67-2.33,6-6.72,9.27-9.75,2.4-2.2,5.47-5.2,8.16-5.12s5.56,3.28,7.95,5.53c3,2.85,5.09,7,8.5,9,10.73,6.39,17.1,15.42,19,27.64.93,6.2-.65,12.54-7.59,12.36-3.41-.08-8.57-5.5-9.62-9.4-2.35-8.76-6.54-14.75-15.48-16.54-9.66-1.93-19.05,5-20.78,15a17.92,17.92,0,0,0,14.08,20.4c3.76.79,7.69.78,11.45,1.6a35.72,35.72,0,0,1,27.81,29.58c2.24,13.88-4.85,28.13-16.94,36.1-4.18,2.75-6.93,7.58-10.76,11-2.42,2.16-5.74,4.94-8.44,4.73s-5.26-3.66-7.6-6c-2.73-2.7-4.65-6.58-7.81-8.4-10.79-6.21-17.48-15-19.4-27.3-.93-6-.33-12,6.84-13.28s9.4,3.58,10.65,9.94c2.29,11.64,10.75,18,20.66,16.39A18.16,18.16,0,0,0,819.34,657.5Z"/></svg>