<svg id="Layer_1" data-name="Layer 1" xmlns="http://www.w3.org/2000/svg" viewBox="0 0 1444 1444"><defs><style>.cls-1{font-size:172.83px;font-family:Roboto-Medium, Roboto;font-weight:500;letter-spacing:0.03em;}.cls-1,.cls-4{fill:#3faf6d;}.cls-2{letter-spacing:0.02em;}.cls-3{letter-spacing:0.02em;}</style></defs><text class="cls-1" transform="translate(424.75 1126.89)">Near<tspan class="cls-2" x="384.22" y="0">b</tspan><tspan class="cls-3" x="485.5" y="0">y</tspan></text><path class="cls-4" d="M713.18,893.71c55.53-.83,109.69-8.84,162-27.84,37.09-13.48,71.49-31.72,100.76-58.61,20-18.41,36.1-39.67,44.13-66,12-39.58,2.42-75.05-21.82-107.29-19.74-26.26-45.56-45.36-74.08-61.1-1.64-.9-3.29-1.78-4.92-2.7-8.55-4.87-11.56-14.16-7.23-22.29s13.9-11.32,22.49-6.33c14.26,8.28,28.58,16.64,42,26.23,25.61,18.34,47.38,40.65,62.23,68.68,30.58,57.67,24.5,112.84-13.53,164.89C1001.9,833.13,971,856,936.42,874.36c-52.66,28-109.2,43-168.25,48.37a613.19,613.19,0,0,1-76.06,2.38c-68-2.28-133.51-16.33-194.76-47-37.49-18.78-70.77-43.06-96.16-77-21.15-28.29-33.12-59.87-32.41-95.49.71-36.12,14.37-67.53,36.67-95.46,23.46-29.37,53.14-51,86.06-68.49,9.22-4.9,19-2,23.27,6.48s1,17.5-8.08,22.37c-27.54,14.79-52.72,32.6-73,56.71-17.45,20.76-29.31,44.09-31.77,71.42-2.66,29.59,6.41,56,23.34,79.87,20.17,28.48,47.18,49,77.5,65.48,49.23,26.7,102.28,40.75,157.75,46.18C678,891.89,695.63,892.57,713.18,893.71Z"/><path class="cls-4" d="M713.51,720.32c8,0,15.91-.18,23.86.08,4.63.16,6.76-1.51,7.41-6.19,5-36.08,10.25-72.13,15.3-108.21,1.25-8.91,3.1-17.45,9.21-24.52,7.58-8.79,17.23-13.06,28.73-13.4,1.55-.05,3.11,0,4.67,0,5.56-.09,7.26-1.86,6-7.2-5.95-25-11.47-50.07-18.34-74.79-4.16-14.94-10.35-29.33-15.94-43.85-3.67-9.54-.76-18.81,7.66-22.57,9.08-4.05,18.11-.19,22.41,9.72,16,36.89,26.37,75.49,34.14,114.82,1.55,7.88,3.17,16.07,2.64,24-1.26,18.72-17.92,32.49-38,32.7-9.42.1-9.41.1-10.72,9.32Q784.8,664.77,777,719.32c-3,21.07-17.74,33.83-39.08,33.84-18.08,0-36.19.49-54.23-.43s-31.33-14.11-33.9-31.88q-8.13-56.16-16-112.36c-1-7-1.63-7.6-9-7.62-18.15,0-31.69-8.23-37.34-24.06a39.3,39.3,0,0,1-2-19.19c7.8-43.76,18.68-86.71,36.34-127.71,3.64-8.43,9.56-12.45,17.15-11.74,11.22,1,17.75,11.75,13.65,22.58-3.31,8.74-7,17.31-10.21,26.09-11,30.71-18.57,62.34-24.6,94.35-1,5.17.68,7,6.45,6.84,11.16-.23,21.32,2.22,29.73,10a35.65,35.65,0,0,1,11.46,21.41q8.1,56.16,16,112.35c1.14,8.09,1.44,8.48,9.53,8.49Z"/><path class="cls-4" d="M709.76,802.42c39-.29,74.07-4.47,108.06-15.35,25.27-8.09,49.17-19,68.93-37.25,9.76-9,17.52-19.57,20.18-32.93,3.5-17.65-3.55-32-15.11-44.62-3.46-3.79-7.35-7.18-11.13-10.66a16.53,16.53,0,0,1-1.86-22.77c5.47-6.62,15.46-8.13,22.29-2.55,21.88,17.85,37.75,39.39,39.3,68.78,1.19,22.33-7.27,41.4-21.48,58.13-18,21.16-41.08,35.09-66.33,45.74-38.81,16.37-79.55,23.74-121.47,25.56S648,832.24,607.63,820.78c-28.54-8.11-55.52-19.64-79.22-37.9-17.36-13.38-31.59-29.34-38.46-50.52-8.81-27.21-2.8-52.07,14.29-74.32,5.65-7.35,12.48-13.91,19.36-20.18,7.73-7.05,18-6.32,24.09.9s4.74,17.08-3,24a127.3,127.3,0,0,0-13.12,13.26c-17.18,20.83-17,44.31.22,65.12,12.18,14.72,27.78,24.92,44.76,33.07,36.38,17.45,75.14,25.21,115.21,27.32C698.91,802,706.07,802.25,709.76,802.42Z"/><path class="cls-4" d="M712.94,416.48c-48.46-.57-87.17-39.84-86.44-87.69.74-48.16,40.06-86.12,88.59-85.52,46.92.59,85.67,40.32,85,87.2C799.46,378.39,760.28,417,712.94,416.48Zm.14-32.83c30.52,0,54.14-23.93,54.15-54.85,0-28.85-24.6-52.72-54.39-52.75-29.29,0-53.42,24.22-53.44,53.71A53.77,53.77,0,0,0,713.08,383.65Z"/></svg>