<svg id="Layer_1" data-name="Layer 1" xmlns="http://www.w3.org/2000/svg" viewBox="0 0 1444 1444"><defs><style>.cls-1{font-size:172.83px;font-family:Roboto-Medium, Roboto;font-weight:500;letter-spacing:0.02em;}.cls-1,.cls-2{fill:#3faf6d;}</style></defs><text class="cls-1" transform="translate(161.34 1076.13)">Pustaka halal</text><path class="cls-2" d="M851.3,922.12,775,843.53c-81.37,33.55-134.19,23.28-167.71-30.87C579,766.83,587.81,706.43,628.19,670.39s101.39-37.91,143.68-4.46c47.52,37.59,55,94.05,20.12,157.81,22.68,22.61,45.24,45.93,68.79,68.2,10.34,9.77,12.59,18.8,4,30.18ZM619,753.75A83.74,83.74,0,0,0,703,838c45.47-.06,83.47-37.56,84-82.95.58-46.13-37.35-84.76-83.53-85.08A83.66,83.66,0,0,0,619,753.75Z"/><path class="cls-2" d="M717.55,249.73q108.42,0,216.84,0c47.15.06,75.42,27.69,76.44,74.59.28,12.89.16,25.78,0,38.66-.19,21.59-1.75,42.22,16.4,60.39,8.5,8.52,11.28,25.75,11.44,39.09,1,82.36.79,164.73.38,247.1-.22,41.81-29.17,71.19-70.47,71.95-35.29.64-70.6.12-105.9.24-9.74,0-19-1.32-19.12-13.44-.09-13,9.55-14.43,20-14.38,33.62.18,67.24.24,100.85,0,29.37-.21,46.1-16.21,46.24-45.69q.59-122.71,0-245.42c-.16-29.24-17.16-45-46.85-45q-154.64-.17-309.29-.05c-41.73,0-63-14.56-77.8-53.18-8.16-21.27-20.81-30.55-42.91-30.8q-32.78-.37-65.56,0c-29,.39-45.24,16.44-45.56,46.5-.51,49.3-.16,98.61-.16,147.92,0,58.27-.1,116.55,0,174.82.09,35.91,15.3,50.86,51.31,50.93,23,0,46,.14,68.92,0,9.85-.08,18.79,1.58,19.24,13.46.46,12-8.28,14.36-18.25,14.32-26.89-.1-53.8.44-80.68-.28-38-1-68-29.12-68.32-67-.89-113.73-3.08-227.59,1.2-341.17,1.46-38.69,27.13-73.86,50.83-105.52,11.35-15.16,31.18-18.26,50.5-18.2C570.74,249.88,644.15,249.73,717.55,249.73ZM982.72,390c0-7.72-.17-13.82,0-19.92,2.82-89.08-3.55-93.76-91.9-92.95-128.2,1.19-256.42.27-384.63.4-8.33,0-16.9.41-24.93,2.39-13,3.19-22.38,11.06-27.38,26.07,25.84,0,49.73-.06,73.62,0,42.25.13,62.16,13.57,77.22,53.47,7.45,19.72,21.29,30.3,41.76,30.36C757.83,390.19,869.15,390,982.72,390Z"/></svg>