<svg id="Layer_1" data-name="Layer 1" xmlns="http://www.w3.org/2000/svg" viewBox="0 0 1444 1444"><defs><style>.cls-1{font-size:172.83px;font-family:Roboto-Medium, Roboto;font-weight:500;letter-spacing:0.01em;}.cls-1,.cls-4{fill:#3faf6d;}.cls-2{letter-spacing:0.02em;}.cls-3{letter-spacing:0.02em;}</style></defs><text class="cls-1" transform="translate(442.25 1121.34)">E<tspan class="cls-2" x="97.83" y="0">v</tspan><tspan class="cls-3" x="188.65" y="0">ent</tspan></text><path class="cls-4" d="M535.26,243.27c11.76,2.93,23,7,31.89,15.69a57.09,57.09,0,0,1,17.75,40.41c.13,4.18,0,8.37,0,12.93H791.09c-1.17-22.92,3.95-43.35,23.52-57.51a54.46,54.46,0,0,1,36.68-10.29c32.45,2.2,48.89,23,52.83,67.77,6.18.32,12.54.13,18.73,1.06,42.3,6.33,69.68,38.81,69.77,82.86q.18,85.74-.1,171.5c0,5.6,1.92,8.75,6.32,12.07,66,50,97.25,116.26,88.92,199-9.7,96.27-85.52,174.12-181.54,187.54-73.34,10.25-136-12.35-187.42-65.46-6-6.22-11.71-9.1-20.61-9.06-77,.4-154,.21-231,.24-34.67,0-60.78-14.74-75.66-46.21A81.15,81.15,0,0,1,384,812.34q-.75-210.12-.22-420.24c.09-44.49,34.91-78.79,79.23-79.41,2.35,0,4.7,0,8.21,0,0-2.85.1-5.34,0-7.81-1.41-32,20.06-56.55,48.7-60.91.43-.06.81-.46,1.21-.7ZM415.17,473.78c-.14,2.11-.31,3.52-.31,4.92q0,165.78.07,331.57A56.85,56.85,0,0,0,416.85,825c6.13,22.72,24.57,35.69,50.66,35.71q106.62.09,213.26,0c2.22,0,4.45-.2,6.47-.3-42.22-89.77-37.18-174.63,29.67-248.8,67-74.37,151.25-87.46,244-54.68V473.78ZM874.8,937.63c100.34.2,182.87-82.13,183.37-182.91.5-100.45-83.12-184.08-183.41-183.44-101.23.65-182.94,82.5-182.85,183.16S774.07,937.43,874.8,937.63ZM791.13,344.49H585v26.77c0,15.93-4.89,20.93-20.57,20.94q-36.51,0-73,0c-15.25,0-20.18-5.06-20.2-20.53,0-9.13,0-18.26,0-27.26-31.94-3-55.5,17.66-56.29,48.6-.3,11.8,0,23.62-.06,35.44v13.26H960.75c0-18.32,1-36.28-.23-54.09-1.91-28.26-28.49-47.94-56.86-42.8,0,9.52.05,19.16,0,28.79-.08,13-5.57,18.55-18.53,18.58q-37.92.1-75.84,0c-12.78,0-17.91-5.12-18.12-18.09C791,364.44,791.13,354.76,791.13,344.49ZM553.76,360.75c0-20.05.08-39.34,0-58.64-.09-15.8-10.68-26.66-25.75-26.72s-25.39,10.78-25.52,26.88c-.14,17.68,0,35.36,0,53,0,1.78.36,3.56.56,5.44Zm318.68-.08c0-19.87.13-39.17,0-58.47-.15-15.92-10.33-26.69-24.93-26.83s-24.74,10.27-25,26.51-.07,32.57-.07,48.86v9.93Z"/><path class="cls-4" d="M880,754.57h44.06c7.55,0,15.11-.16,22.66,0,10.4.29,16.88,6.07,17.17,15,.29,9.16-6.18,15.71-16.85,16.1-11.32.41-22.66.12-34,.12-14.64,0-29.27.07-43.9,0-14.19-.08-20.35-6.16-20.38-20.19q-.07-50.62,0-101.25c0-12.33,6.78-19.9,16.71-19.16,8.72.64,14.35,6.92,14.43,16.93.17,21.24.06,42.48.07,63.72Z"/></svg>