<svg id="Layer_1" data-name="Layer 1" xmlns="http://www.w3.org/2000/svg" viewBox="0 0 1444 1444"><defs><style>.cls-1,.cls-2{fill:#fff;}.cls-2{font-size:172.83px;font-family:Roboto-Medium, Roboto;font-weight:500;letter-spacing:0.02em;}</style></defs><path class="cls-1" d="M421.14,761.81h42.44c1.71,9.14,2.81,18.4,5.21,27.32,11.46,42.53,51.52,75.39,96,75.7q166.34,1.2,332.68,0c54.21-.48,99.5-45.94,99.95-100.13q1.38-165.45,0-330.93c-.41-55-46-100.5-100.85-100.89q-164.76-1.2-329.54-.05c-57.13.37-101.78,46.68-102.09,104.63-.44,84.05-.12,168.1-.13,252.15v18.46H420.6V691.11q0-122.93,0-245.84c0-93.41,63.85-156.9,157.72-156.92q153,0,305.89,0c94.53,0,157.76,63.53,157.77,158.45q0,152.09,0,304.15c0,94.95-63.21,158.44-157.77,158.46-104.59,0-209.18.31-313.76-.1C488.12,909,422.07,844.06,421.14,761.81Z"/><path class="cls-1" d="M531.85,598c.3-109.45,90.65-198.92,200.36-198.43s199,90.59,198.54,200.26S840.07,798.73,730.38,798.22,531.54,707.81,531.85,598ZM730.56,754.59c84.59.49,155.72-69.76,156.51-154.58.79-84.48-69.35-155.8-154.23-156.83-85.11-1-157.1,70.05-157.33,155.35C575.29,683.1,645.82,754.1,730.56,754.59Z"/><path class="cls-1" d="M908,443.12c-24.63-.26-43.31-19.59-43-44.53.28-24.31,20.48-44.06,44.49-43.48s44.07,21.26,43.49,45C952.36,424.59,932.74,443.38,908,443.12Z"/><text class="cls-2" transform="translate(401.99 1085.58)">Sosmed</text></svg>