<svg id="Layer_1" data-name="Layer 1" xmlns="http://www.w3.org/2000/svg" viewBox="0 0 3642.22 2017.21"><defs><style>.cls-1,.cls-4{fill:#fff;}.cls-2,.cls-3{fill:#b6e800;}.cls-3,.cls-4{font-size:172.83px;font-family:Roboto-Medium, Roboto;font-weight:500;letter-spacing:0.02em;}</style></defs><path class="cls-1" d="M2109.61,761.52H2152c1.71,9.14,2.82,18.4,5.22,27.31,11.45,42.54,51.51,75.39,96,75.71q166.33,1.2,332.69,0c54.2-.47,99.49-45.94,99.94-100.12q1.38-165.46,0-330.93c-.41-55-46-100.5-100.85-100.9q-164.76-1.19-329.53,0c-57.14.37-101.79,46.68-102.09,104.63-.45,84.05-.13,168.1-.13,252.14v18.47h-44.24v-17q0-122.91,0-245.83c0-93.41,63.86-156.9,157.73-156.92q152.94,0,305.88,0c94.53,0,157.77,63.53,157.78,158.45q0,152.07,0,304.15c0,95-63.22,158.44-157.77,158.46-104.59,0-209.18.31-313.77-.1C2176.58,908.7,2110.53,843.76,2109.61,761.52Z" transform="translate(825.13 -286.65)"/><path class="cls-1" d="M2220.31,597.67c.31-109.45,90.66-198.93,200.36-198.43s199,90.59,198.54,200.26-90.67,198.94-200.37,198.43S2220,707.52,2220.31,597.67ZM2419,754.3c84.59.49,155.72-69.76,156.51-154.58.78-84.48-69.35-155.8-154.24-156.83-85.11-1-157.09,70.05-157.32,155.35C2263.75,682.81,2334.29,753.81,2419,754.3Z" transform="translate(825.13 -286.65)"/><path class="cls-1" d="M2596.49,442.82c-24.64-.25-43.32-19.58-43-44.52.28-24.31,20.47-44.06,44.48-43.49s44.08,21.27,43.49,45C2640.82,424.3,2621.2,443.08,2596.49,442.82Z" transform="translate(825.13 -286.65)"/><path class="cls-2" d="M-653.75,2042.36H-754.94a20.15,20.15,0,0,0-3.41-1.35c-46.56-9.31-66.66-33.84-66.66-81.43,0-86,.19-172-.12-258-.09-23.8,8.62-42.88,25.78-59q113.63-106.93,226.89-214.26c25.52-24.14,51.4-24,77.05.24,64.79,61.34,129.83,122.41,194.51,183.87,25.3,24,56.15,44.42,59.3,84.19v274.14c-.9,3.93-1.79,7.85-2.7,11.77q-10.15,43.93-53.48,56.3c-5.06,1.44-10.26,2.38-15.39,3.55H-414.36a20.05,20.05,0,0,0-3.41-1.33c-46.49-9-67.16-33.89-67.18-81,0-35.39.11-70.78-.05-106.16-.11-22.46-9.07-31.11-31.78-31.25-10.69-.07-21.38,0-32.08,0-26.06,0-34.23,8-34.28,33.71-.07,37,.22,74.06-.1,111.09-.3,34.77-21.64,62.74-53.75,71.29C-642.52,2040.14-648.16,2041.14-653.75,2042.36Zm120.11-583.68c-2.53,2-3.89,2.91-5.07,4-76.26,72-152.67,143.75-228.44,216.21-5.77,5.52-9.81,15.8-9.88,23.9-.7,86.82-.53,173.65-.37,260.48,0,20.93,9.27,29.89,30.39,30,27.55.21,55.11.11,82.66,0,25.26-.05,33.39-8,33.47-33.14.12-37,0-74.07,0-111.1,0-40.25,27.74-70.74,67.9-73.81,14.73-1.13,29.58-.76,44.38-.71,52.46.17,81.59,29.4,81.78,82,.12,35.38,0,70.77,0,106.16,0,22,8.38,30.41,30.68,30.54,27.14.16,54.28.08,81.42,0,25.89-.06,34-8.11,34-34,0-83.54-.21-167.08.22-250.61.08-14.77-4.71-25.67-15.53-35.69-41.92-38.83-83.25-78.32-124.82-117.54C-464.85,1523.46-498.95,1491.36-533.64,1458.68Z" transform="translate(825.13 -286.65)"/><path class="cls-1" d="M735.51,286.65c5.2,1.28,10.65,1.94,15.55,3.93,21,8.53,33.68,24.08,37.83,46.42,1.91,10.31-.56,20.15-3.66,29.85-.83,2.61-.24,3.8,2.19,4.74,8.43,3.27,17,6.35,25.17,10.08a160.24,160.24,0,0,1,49.16,34.69c21.6,22.24,35.76,48.59,43.73,78.45a691.12,691.12,0,0,1,16,77.73c2.11,14.42,3.8,28.91,6.34,43.25,4.55,25.68,11.13,50.74,24.07,73.73,5.2,9.23,12.64,16.33,20.57,23.06,9.43,8,19.54,15.29,27.36,25a55,55,0,0,1,11.75,28.64,294.53,294.53,0,0,1,1.33,33.89c0,8.64-3.35,16.42-8.71,23.29s-12.59,8.69-20.79,8.73c-40.29.17-80.58.45-120.87.63-17.58.08-35.17,0-52.53,0-1.54,7.51-2.47,14.75-4.54,21.64-8.7,29-28.32,47.29-57.39,54.61-8.7,2.19-18.36,1.61-27.47.93-18.24-1.36-32.9-10.49-45.54-23.22-13.12-13.22-19.75-29.39-21.66-47.71-.2-1.88-.59-3.74-1-6.11-6.4,0-12.85,0-19.29,0q-65.36-.13-130.72-.34c-9.74,0-19.49-.44-29.22-1s-15.7-6.55-19.69-14.83c-3.51-7.28-4.32-15.14-4.56-23.12-.36-11.76.14-23.39,3.14-34.9,3.72-14.22,11.93-25.11,23.11-34.29,8.83-7.25,17.69-14.56,25.7-22.67,10-10.17,15.7-23.18,20.56-36.41,6.54-17.77,10.63-36.18,13.59-54.86,3.82-24.07,7.2-48.22,11.56-72.19s9.78-47.46,19.19-69.94a163.67,163.67,0,0,1,40-57.58c19.79-18.37,43.14-30.4,68.58-38.73,3.66-1.2,4-1.42,2.51-5a57.36,57.36,0,0,1-3.77-25.46c1.11-17.43,8.43-31.59,22.32-42.26,8.79-6.75,18.47-11.39,29.69-12.3a2.68,2.68,0,0,0,.84-.43ZM486.56,793.77H974.82a80,80,0,0,0-2.36-24,23.53,23.53,0,0,0-8.08-13.2q-9.6-7.82-19-15.82c-13.79-11.7-25.16-25.37-32.92-41.78-11.7-24.74-18.91-50.89-23.46-77.78-1.93-11.44-3-23-4.72-34.5q-3.11-20.18-6.83-40.25c-3.71-19.87-8-39.62-15.26-58.57-8.82-23-22.49-42.57-42.56-57.15a137.24,137.24,0,0,0-75.29-26.5c-19.55-1-38.86-.2-57.8,5.27-46.2,13.35-76.16,43.43-90.2,89.06-5.21,17-8.72,34.47-12.31,51.87-2.86,13.83-4.77,27.86-6.91,41.83-1.89,12.31-2.7,24.84-5.47,36.94-3.86,16.9-8.65,33.63-13.9,50.17a134.89,134.89,0,0,1-19.45,38.55c-9.84,13.53-22.15,24.49-35.51,34.28-7.62,5.58-13.13,12.11-14.18,21.75C487.87,780.47,487.24,787,486.56,793.77Zm205.35,39.48c.94,21.35,18.78,40.7,43.38,38.42,17.55-1.63,34.54-19,34.76-38.42Zm39.56-468.82c8.76,1.18,19.38-10.93,19-18.57-.62-11.44-8.62-20.3-19.66-20.34-10.32,0-18.72,8.87-19,19.44C711.49,354.24,721.26,365.27,731.47,364.43Z" transform="translate(825.13 -286.65)"/><text class="cls-3" transform="translate(57.59 1926.31)">Home</text><text class="cls-4" transform="translate(2915.59 798.64)">Sosmed</text><text class="cls-4" transform="translate(1078.29 798.64)">Notification</text><text class="cls-4" transform="translate(3166.91 1970.37)">Lapor</text><path class="cls-1" d="M2817.09,1847.53c-6.07,24.11-21.83,41.73-38.76,58.89-22.48,22.77-44.2,46.28-66.85,70.1l-16.56-24.79c24.15-25.23,48.59-50,71.94-75.65,7.93-8.73,14.25-19.42,19.21-30.18A21.13,21.13,0,0,0,2778,1819c-7-4.37-17.67-5.93-25.89-4.38-7.65,1.44-14.76,8-21.13,13.42-13.87,11.84-26.68,24.94-40.89,36.34-4.2,3.38-12.39,5-17.28,3.33-3.79-1.32-7.38-9.08-7.51-14.06-1.34-53.41-2.12-106.84-2.75-160.27-.47-40.08-.39-80.17-.77-120.26-.17-18-8.78-28.63-23.56-29.89-16.48-1.4-28.32,9.75-28.37,27.32-.13,51.83-.05,103.66-.05,155.49v14.26h-29.64v-13.93q0-102.06-.07-204.1c0-5.19-.25-10.59-1.66-15.54a25.54,25.54,0,0,0-49.35.84,65.18,65.18,0,0,0-1.45,15.62q-.14,100.83-.06,201.66v15.47h-30.21V1728c0-52.64.07-105.29-.06-157.93,0-14.79-7.81-24.26-21.26-26.91-11.77-2.33-24.48,4.19-28.38,15.59-1.78,5.2-2,11.12-2,16.71-.15,50.21-.09,100.43-.09,150.64v14.18h-28.71c-.18-3.72-.57-8-.57-12.23-.06-33.21.13-66.41-.11-99.62-.12-17.13-9.93-28.32-24.62-29.09-16-.84-27.54,10.6-27.76,28.41-.3,23.89-.08,47.78-.09,71.67,0,69.65-.4,139.31.33,208.95a159.56,159.56,0,0,0,7.3,45.1c3,9.73,2.57,16.59-3.63,24-3.59,4.29-6.49,9.14-10.13,14.36-16-22.84-20.36-48.14-23.55-73.82V1623.94c.69-2.69,1.46-5.37,2.08-8.09,5.84-25.75,24.57-42.9,50.7-44.44,9.38-.55,19,2.36,29.52,3.85-1.29-21.4,5.57-39.64,23.79-52.26s37.8-11.77,57.82-3.8c1.21-7.6,1.61-14.46,3.47-20.9,6.49-22.53,23.54-33.58,44.88-39.62h14.64c19.21,4.91,35.88,13.54,43.42,33.13,3.27,8.5,4.34,17.83,6.41,26.76,49.06-16.91,82.6,17,80.82,62.77-2.73,70.25-.79,140.67-.63,211,0,9.78,1.18,19.55,1.88,30.39,11.36-9.87,20.59-19.73,31.52-27.08,42.25-28.44,85.38-5.39,91.14,34,.17,1.14,1.07,2.16,1.63,3.24Z" transform="translate(825.13 -286.65)"/><path class="cls-1" d="M2539.85,1806a138.08,138.08,0,1,0,138,138A138,138,0,0,0,2539.85,1806Zm10.86,178.13c-.64,4.22-7.5,10.62-11.28,10.49-4.22-.14-11.15-6.19-11.78-10.41-3.54-23.91-6-48-7.88-72.08-1.08-14.34,5.29-19.22,21.25-18.64,14.1.51,18.27,5.22,17.15,25.82C2556.27,1936.9,2554.22,1960.64,2550.71,1984.13Zm4.61,41.43c-1.08,9.13-6.49,14.45-16.5,14.57-9.2-1-14.78-6-14.51-15.67.24-9.39,5.71-15,15.17-15.51C2547.85,2008.53,2556.29,2017.36,2555.32,2025.56Z" transform="translate(825.13 -286.65)"/></svg>