<svg id="Layer_1" data-name="Layer 1" xmlns="http://www.w3.org/2000/svg" viewBox="0 0 1444 1444"><defs><style>.cls-1{font-size:172.83px;font-family:Roboto-Medium, Roboto;font-weight:500;letter-spacing:0.02em;}.cls-1,.cls-2{fill:#fff;}</style></defs><text class="cls-1" transform="translate(484.35 1034.82)">Lapor</text><path class="cls-2" d="M959.65,625.33c-6.07,24.1-21.83,41.72-38.76,58.88C898.42,707,876.7,730.5,854.05,754.32l-16.56-24.79c24.14-25.24,48.59-49.95,71.94-75.65,7.93-8.73,14.25-19.42,19.2-30.18a21.13,21.13,0,0,0-8.12-26.93c-7-4.37-17.67-5.93-25.88-4.38-7.65,1.44-14.76,8-21.13,13.42-13.87,11.83-26.69,24.93-40.89,36.34-4.21,3.37-12.39,5-17.29,3.33-3.79-1.32-7.38-9.08-7.5-14.07-1.34-53.41-2.12-106.83-2.75-160.26-.47-40.08-.39-80.18-.77-120.26-.17-18-8.79-28.63-23.57-29.89-16.47-1.4-28.32,9.75-28.36,27.31-.14,51.84,0,103.67,0,155.5v14.26H722.68V504.13q0-102-.07-204.09c0-5.2-.26-10.6-1.66-15.54a25.55,25.55,0,0,0-49.36.84A65.69,65.69,0,0,0,670.14,301q-.14,100.83,0,201.66v15.47H639.88V505.8c0-52.65.07-105.29-.06-157.93,0-14.79-7.82-24.26-21.26-26.92-11.77-2.32-24.49,4.2-28.38,15.6-1.78,5.2-2,11.11-2,16.71-.14,50.21-.08,100.42-.08,150.64v14.18H559.4c-.18-3.73-.57-8-.58-12.23-.05-33.21.13-66.42-.1-99.62-.12-17.13-9.93-28.32-24.62-29.09-16-.84-27.55,10.6-27.77,28.41-.3,23.88-.08,47.78-.08,71.67,0,69.65-.41,139.3.32,208.94a160,160,0,0,0,7.31,45.11c3,9.73,2.57,16.58-3.64,24-3.58,4.28-6.48,9.14-10.13,14.36-16-22.85-20.36-48.15-23.55-73.83V401.74c.7-2.7,1.47-5.37,2.09-8.09,5.84-25.75,24.57-42.9,50.7-44.44,9.37-.55,19,2.36,29.52,3.84-1.29-21.39,5.57-39.64,23.78-52.25S620.45,289,640.48,297c1.21-7.59,1.61-14.45,3.46-20.89,6.5-22.53,23.55-33.58,44.89-39.62h14.64c19.2,4.91,35.87,13.54,43.42,33.13,3.27,8.5,4.34,17.83,6.41,26.76,49.06-16.92,82.6,17,80.82,62.77-2.73,70.24-.79,140.67-.63,211,0,9.78,1.18,19.55,1.88,30.39,11.36-9.88,20.59-19.73,31.52-27.08,42.25-28.44,85.37-5.39,91.14,34,.16,1.13,1.07,2.16,1.62,3.23Z"/><path class="cls-2" d="M682.41,583.8a138.06,138.06,0,1,0,138.05,138A138,138,0,0,0,682.41,583.8Zm10.86,178.13c-.63,4.22-7.49,10.61-11.27,10.49-4.22-.14-11.15-6.2-11.79-10.42-3.53-23.91-6-48-7.88-72.07-1.07-14.35,5.3-19.23,21.26-18.64,14.1.51,18.27,5.22,17.15,25.81C698.83,714.69,696.78,738.43,693.27,761.93Zm4.61,41.43c-1.07,9.12-6.49,14.44-16.49,14.56-9.2-1-14.79-6-14.52-15.66.25-9.39,5.71-15,15.18-15.52C690.42,786.33,698.86,795.16,697.88,803.36Z"/></svg>