<svg id="Layer_1" data-name="Layer 1" xmlns="http://www.w3.org/2000/svg" viewBox="0 0 1444 1444"><defs><style>.cls-1,.cls-2{fill:#fff;}.cls-2{font-size:172.83px;font-family:Roboto-Medium, Roboto;font-weight:500;letter-spacing:0.02em;}</style></defs><path class="cls-1" d="M601.61,952.75H500.43A19.66,19.66,0,0,0,497,951.4c-46.56-9.31-66.66-33.85-66.66-81.43,0-86,.19-172-.13-258-.08-23.79,8.63-42.87,25.78-59Q569.65,446,682.91,338.69c25.52-24.14,51.4-24,77.05.24q97.18,92,194.5,183.86c25.31,24.05,56.16,44.43,59.31,84.2V881.13l-2.7,11.77q-10.16,43.94-53.49,56.29c-5.05,1.45-10.25,2.39-15.38,3.56H841a19.87,19.87,0,0,0-3.41-1.33c-46.49-9-67.17-33.89-67.18-81,0-35.39.11-70.78-.06-106.16-.1-22.46-9.07-31.11-31.78-31.25-10.69-.07-21.38,0-32.07,0-26.06,0-34.23,8-34.28,33.7-.07,37,.22,74.07-.1,111.1-.3,34.76-21.64,62.74-53.76,71.28C612.85,950.52,607.2,951.53,601.61,952.75ZM721.73,369.07c-2.53,2-3.9,2.91-5.08,4C640.39,445,564,516.83,488.22,589.3c-5.77,5.52-9.81,15.79-9.88,23.89-.7,86.83-.53,173.66-.38,260.48,0,20.93,9.28,29.9,30.4,30.06,27.55.21,55.1.11,82.65,0,25.27-.06,33.39-8,33.48-33.14.12-37,0-74.07,0-111.11,0-40.24,27.74-70.73,67.9-73.8,14.72-1.13,29.58-.76,44.37-.72,52.46.17,81.6,29.4,81.78,82,.13,35.39,0,70.78,0,106.17,0,21.95,8.38,30.4,30.68,30.54,27.14.15,54.29.08,81.43,0,25.89-.06,34-8.11,34-34,0-83.53-.21-167.07.22-250.6.08-14.77-4.71-25.67-15.53-35.69C907.48,544.69,866.16,505.21,824.59,466,790.52,433.85,756.42,401.75,721.73,369.07Z"/><text class="cls-2" transform="translate(487.82 1123.35)">Home</text></svg>