<svg id="Layer_1" data-name="Layer 1" xmlns="http://www.w3.org/2000/svg" viewBox="0 0 1444 1444"><defs><style>.cls-1{fill:#0778a5;}.cls-2{fill:#07b051;}</style></defs><path class="cls-1" d="M218.88,608.24l-.31,31.32L163.5,639,163,689.1l55.07.54-.32,31.41L80.93,719.71l.31-31.41,57.32.56.51-50.08-57.32-.56.31-31.32Z"/><path class="cls-1" d="M214.76,512.84l-10.29,38.93L228.2,566l-8.45,32L98.65,521.07,103,504.8l.09,0-.07-.11,4.3-16.28L251,479.84l-8.46,32Zm-32.08,25.81,6.58-24.9-44.33,1.61-.14.54Z"/><path class="cls-1" d="M248.51,434.37l26.79-51.68,21.75,11-41.29,79.63L134,411.6l14.5-27.94Z"/><path class="cls-1" d="M331.56,308.56l-26.12,30.86,15.33,22.86L299.3,387.65,223,267l10.92-12.9.07.06V254l10.92-12.89L378.56,294l-21.48,25.37Zm-40.15,9.79,16.71-19.74-40.78-17.27-.36.43Z"/><path class="cls-1" d="M396,252.12l46.72-35.2,14.81,19.23-72,54.22-82.9-107.65,25.27-19Z"/><path class="cls-1" d="M571.05,125.61l-45.51,15.75,11.27,31.84,54.55-18.87,8.07,22.8L514.9,206.38,469.71,78.66l84.62-29.28,8.07,22.81L507.76,91.1l9.71,27.45L563,102.81Z"/><path class="cls-1" d="M714,116.7l.24.53q2.92,23-9.26,36.3t-36.94,16q-25.23,2.73-42.18-10.86t-19.7-38.25L603,92.35q-2.71-24.59,10.3-41.47t37.22-19.5q25.88-2.79,41.35,7.59t17.61,33.15l-.22.58L678.57,76q-1.37-12.37-7.29-17.16c-3.95-3.18-10-4.35-18.06-3.46q-10.65,1.14-15.41,10.22T634.6,88.74L637.73,117q1.56,14.13,8.76,22t18.88,6.56q10.85-1.19,15.06-7.05T683.25,120Z"/><path class="cls-1" d="M854.39,123.31q-3.61,24.74-21.83,38.52T788.78,172q-25.75-3.67-39.41-22t-10-43.08l3.53-24.1q3.6-24.65,21.91-38.46t44-10.14q25.49,3.65,39.13,22t10,43ZM826.6,94.54Q828.7,80.2,823.2,70t-18-12q-12.74-1.83-20.82,6.37t-10.2,22.62l-3.55,24.28q-2.11,14.53,3.37,24.71t18.23,12q12.38,1.77,20.5-6.46t10.27-22.76Z"/><path class="cls-1" d="M941.08,177.29q2.8-6.71-.12-12.08T928.09,151q-20.37-17.19-28.2-30.43t-1.1-29.27q6.59-15.7,23.94-20t37.84,4.15q21.61,8.85,30.61,24.27t.94,33.44l-.39.44L963.26,122q3.69-8.83.51-14.83t-13-10q-8-3.28-14.21-1.3a13.1,13.1,0,0,0-8.6,7.64,11,11,0,0,0,1,10.74q3.33,5.25,14.18,15.52,19.27,15.45,26.67,29.35t.62,30q-6.9,16.48-23.83,20.45t-38.46-4.85q-21.44-8.79-32.13-24.9t-1.26-37.39l.39-.44,28.56,11.71q-4.57,10.91-1.08,17.72t14.7,11.41q9.2,3.76,15.23,2A12.59,12.59,0,0,0,941.08,177.29Z"/><path class="cls-1" d="M1055.18,197.45l.45.33,57.17-32,27.83,20-89.67,44L1022.7,268.3l-25.63-18.39,29.08-39.64,14.31-96.4,27.84,20Z"/><path class="cls-1" d="M1137.87,330q5.54-4.77,5.33-10.87t-5.12-18.37q-10.45-24.37-11.5-39.67t12.22-26.68q13-11.16,30.43-7.3t32,20.39q15.35,17.47,16.45,35.24t-14.25,30.33l-.55.23-20.21-23q7.3-6.29,7.15-13t-7.11-14.69c-3.79-4.3-7.82-6.78-12.13-7.44a13.27,13.27,0,0,0-11.14,3.05,11,11,0,0,0-3.92,10.07q.63,6.17,5.7,20.16,10.27,22.32,10.62,38t-13,27.17q-13.62,11.7-30.56,7.79t-32.23-21.32q-15.22-17.32-17.53-36.46t15.74-34l.55-.23,20.28,23.08q-9,7.74-8.95,15.39t8,16.69q6.54,7.44,12.72,8.52A12.74,12.74,0,0,0,1137.87,330Z"/><path class="cls-1" d="M1283.47,419.86l-17.32-31.41-98.68,53.22-15.2-27.59,98.67-53.21-17-30.84,21.45-11.57,49.53,89.84Z"/><path class="cls-1" d="M1267.58,542.49l-14-45.6-32.63,9.83,16.84,54.67-23.37,7-26.1-84.72,130.89-39.43,26.13,84.81-23.38,7L1305,481.37l-28.13,8.48,14,45.6Z"/><path class="cls-1" d="M1264.24,652.21l0,.56,97,26.47,1.8,41.5-136.7,5.83L1225,695.19l88.06-3.76.07-.56-89.46-26-.92-21.08,85.58-33-.12-.55-86.76,3.7-1.36-31.39,136.69-5.82,1.8,41.13Z"/><path class="cls-1" d="M159.62,921.59S204,1285.38,525.94,1385.38c0,0,88.74-2,145.49-99S559,1121.08,525.94,1112.92s-108.35-39.8-124.86-56.12-49.53,9.18-22.7,54.08S485.69,1204.76,509.43,1214s-78.43,20.4-159.94-67.35-123.83-203.07-126.93-225-31.21-35.21-31.21-35.21S159.62,881,159.62,921.59Z"/><path class="cls-2" d="M576,1394s42.57,14.54,161.75-143.12,178.77-126.28,248.42-163,78.94-45.92,88.23-30.61-2.32,74.23-65,111-88.22,52.2-100.61,54,47.21,37,155.56-48.67S1205.18,947,1205.18,947s17-72.41,63.46-59.93-37.14,222.18-66.55,265S1000.87,1490.41,576,1394Z"/><path class="cls-2" d="M721,228.75c-253.65,0-459.25,199.08-459.25,444.67S467.36,1118.08,721,1118.08,1180.26,919,1180.26,673.42,974.66,228.75,721,228.75ZM630.17,541.83c.26-.5.51-1.07.83-1.58,10.49-16.19,19.83-36.12,41.71-36.75,21.11-.57,29.56,19.48,38.83,34.47,27.25,43.91,52.78,88.82,60.58,140.82,3,19.49,3.71,39.29,5.63,61.49-18.23-3.66-24.75-14.36-26-26.69-5.69-55.36-40.43-90.09-84-119.19-10.3-6.83-19.77-14.93-30.2-21.51C624.54,564.61,622.24,554.61,630.17,541.83ZM554.24,743.57c-3.9,44.48-31.41,72.12-72.8,80.16-43.18,8.41-88,10.06-132.1,11.51-24.44.82-39.86-17.71-39.54-43.14.45-27.21,10.43-51.5,30.9-70.48,4.61-4.3,10.68-8.54,16.63-9.55,7.42-1.33,15.49.76,23.29,1.39-1.86,7.85-3.33,15.82-5.69,23.53-.77,2.47-3.91,4.24-5.89,6.46-20.92,23.15-16.5,41.88,15,46,28.08,3.73,57.77,2.22,85.79-2.59,26.61-4.62,37-22.33,38.63-51.75,3.14-55.29-2.81-109.57-16.63-163.47-4.54-17.71-3.32-38.27.64-56.43,4.29-19.48,22.46-30.36,38-27.64,18.62,3.22,24.37,18.47,25.91,33.59,3,30.81,3.64,61.87,5.24,92.87.9.06,1.73.19,2.63.25C561,657.41,558,700.56,554.24,743.57Zm558.27,80.22c-57.63,12.72-115.08,26.57-173.1,37.2-19.83,3.6-41.52,1.07-61.73-2.15C844,853.4,815.94,838.4,805.45,798.3c-10.81,9.55-18.81,16-26.23,23.09-44.07,42.19-87.57,50.86-139,27.58-35.76-16.26-47-48-26.48-80.85,9.53-15.25,22.84-28.22,34.42-42.2l6.71,3.42c-1.08,10-2.11,20-3.45,30.11-3.07,22.9,7.42,39.35,30.32,44,38.06,7.78,72.61-1,99.16-29,9.72-10.32,15.54-26.32,18.36-40.62C810.51,677,811.4,620,795.34,563.59c-2.17-7.78-4.86-16.25-9.91-22.33-10.49-12.65-7.93-23.15,4.41-30.74,18.3-11.14,36.85-23.16,57-29.86,22.58-7.53,30.32,1.52,26.36,25.37-4.93,29.35-11.45,58.51-15.1,88.06C851.7,646.28,845.05,698.53,842,751c-2.75,47.95,20.53,70.53,68.83,67,33-2.34,65.57-10.88,98.39-19.48-36-35.3-87-25.75-130.82-45.93,6-7.08,9.27-13.66,14.65-17,29.62-18.22,61.47-26.07,94.36-10.13,22.19,10.76,41.9,26.51,64.16,37.2,20.41,9.81,42.8,15.63,64.1,23.85,6.27,2.47,16.82,7.4,16.57,10.57-.64,7.65-5.89,15.18-10.3,22.14C1120.32,821.77,1115.84,823.09,1112.51,823.79Z"/></svg>